<svg xmlns="http://www.w3.org/2000/svg" width="557.117" height="99.428" viewBox="0 0 557.117 99.428">
  <g id="Grupo_3554" data-name="Grupo 3554" transform="translate(-60.639 -2340)">
    <path id="Trazado_58" d="M586.9,422.068a34.441,34.441,0,0,1,10.978,1.5,17.077,17.077,0,0,1,7.036,4.293,15.784,15.784,0,0,1,3.742,6.785,33.522,33.522,0,0,1,1.1,8.882v30.937q-3.2.7-8.882,1.648a85.419,85.419,0,0,1-13.771.947,43.761,43.761,0,0,1-9.232-.894,20.039,20.039,0,0,1-7.135-2.944,13.454,13.454,0,0,1-4.591-5.339,18.429,18.429,0,0,1-1.6-8.083,15.31,15.31,0,0,1,1.847-7.785,14.188,14.188,0,0,1,4.94-5.089,22.344,22.344,0,0,1,7.086-2.745,39.74,39.74,0,0,1,8.282-.849,47.417,47.417,0,0,1,5.139.249,23.191,23.191,0,0,1,3.643.649v-1.4a8.234,8.234,0,0,0-2.295-6.086q-2.3-2.295-7.983-2.3a50.951,50.951,0,0,0-7.485.549,32.087,32.087,0,0,0-6.386,1.547l-1.9-11.977q1.3-.4,3.244-.848t4.246-.8q2.293-.348,4.841-.6t5.139-.25m1.195,43.511q2.195,0,4.191-.1a28.953,28.953,0,0,0,3.193-.3V453.9q-.9-.2-2.694-.4a30.19,30.19,0,0,0-3.293-.2,29.525,29.525,0,0,0-3.942.249,10.349,10.349,0,0,0-3.245.948,5.572,5.572,0,0,0-2.194,1.9,5.274,5.274,0,0,0-.8,2.995q0,3.494,2.345,4.841a12.967,12.967,0,0,0,6.438,1.347" transform="translate(-332.362 1945)"/>
    <path id="Trazado_59" d="M666.456,449.713a33.207,33.207,0,0,1-1.848,11.376,24.045,24.045,0,0,1-5.34,8.682,23.492,23.492,0,0,1-8.583,5.54,32.231,32.231,0,0,1-11.576,1.945q-2.7,0-5.64-.249t-5.788-.647q-2.844-.4-5.438-.948t-4.591-1.149V400.911l14.872-2.4v26.148a27.7,27.7,0,0,1,5.189-1.7,26.685,26.685,0,0,1,5.788-.6,23.683,23.683,0,0,1,9.879,1.946,19.377,19.377,0,0,1,7.187,5.538,24.905,24.905,0,0,1,4.391,8.634,39.384,39.384,0,0,1,1.5,11.228m-15.169-.4q0-14.371-10.576-14.371a17.5,17.5,0,0,0-4.543.6,12.9,12.9,0,0,0-3.643,1.5v27.044q1.1.2,2.795.35t3.691.149q6.089,0,9.182-4.191t3.093-11.077" transform="translate(-332.362 1945)"/>
    <path id="Trazado_60" d="M719.676,423.464q-4.5,15.168-9.4,28.442t-10.706,25.749a58.42,58.42,0,0,1-4.2,7.634,23.524,23.524,0,0,1-4.6,5.189,16.214,16.214,0,0,1-5.643,3,25.605,25.605,0,0,1-7.345.948,30.025,30.025,0,0,1-6.447-.648,28.727,28.727,0,0,1-4.847-1.446l2.594-11.876a25.448,25.448,0,0,0,4.1,1.1,23,23,0,0,0,3.8.3,8.305,8.305,0,0,0,6.138-2.146,17.262,17.262,0,0,0,3.649-5.938q-5.094-9.981-10.185-22.4a279,279,0,0,1-9.595-27.9H682.75q1,3.893,2.356,8.432t2.858,9.182q1.5,4.641,3.054,9.031t2.959,7.989q1.3-3.594,2.705-7.983t2.756-9.031q1.35-4.641,2.607-9.182t2.254-8.438h15.377Z" transform="translate(-332.362 1945)"/>
    <path id="Trazado_61" d="M774.965,449.712a38.46,38.46,0,0,1-1.5,11.078,24.916,24.916,0,0,1-4.391,8.583,19.847,19.847,0,0,1-7.187,5.586,23.211,23.211,0,0,1-9.879,2,26.763,26.763,0,0,1-5.79-.6,27.74,27.74,0,0,1-5.188-1.7v19.759h-14.87V425.262q2-.6,4.591-1.149t5.437-.948q2.845-.4,5.789-.647t5.639-.25a32.236,32.236,0,0,1,11.576,1.947,22.905,22.905,0,0,1,13.923,14.121,33.245,33.245,0,0,1,1.846,11.378m-15.17.4q0-6.887-3.094-11.028t-9.181-4.141q-2,0-3.693.149t-2.795.35v26.844a12.848,12.848,0,0,0,3.643,1.5,17.514,17.514,0,0,0,4.543.6q10.578,0,10.577-14.271" transform="translate(-332.362 1945)"/>
    <path id="Trazado_62" d="M802.427,476.957a37.194,37.194,0,0,1-10.528-1.4,15.567,15.567,0,0,1-6.387-3.643,12.059,12.059,0,0,1-3.194-5.689,30.675,30.675,0,0,1-.848-7.534V400.91l14.87-2.4V455.7a19.482,19.482,0,0,0,.3,3.593,6.191,6.191,0,0,0,1.147,2.694,6.063,6.063,0,0,0,2.445,1.8,13.312,13.312,0,0,0,4.29.9Z" transform="translate(-332.362 1945)"/>
    <path id="Trazado_63" d="M832.067,422.068a34.441,34.441,0,0,1,10.978,1.5,17.1,17.1,0,0,1,7.036,4.293,15.8,15.8,0,0,1,3.741,6.785,33.481,33.481,0,0,1,1.1,8.882v30.937q-3.194.7-8.88,1.648a85.406,85.406,0,0,1-13.77.947,43.752,43.752,0,0,1-9.231-.894,20,20,0,0,1-7.134-2.944,13.459,13.459,0,0,1-4.593-5.339,18.446,18.446,0,0,1-1.6-8.083,15.309,15.309,0,0,1,1.846-7.785,14.21,14.21,0,0,1,4.939-5.089,22.353,22.353,0,0,1,7.086-2.745,39.766,39.766,0,0,1,8.284-.849,47.437,47.437,0,0,1,5.14.249,23.231,23.231,0,0,1,3.643.649v-1.4a8.231,8.231,0,0,0-2.3-6.086q-2.3-2.295-7.983-2.3a50.951,50.951,0,0,0-7.485.549,32.131,32.131,0,0,0-6.387,1.547l-1.9-11.976q1.3-.4,3.244-.848t4.24-.8q2.3-.348,4.842-.6t5.139-.25m1.2,43.51q2.193,0,4.19-.1a28.965,28.965,0,0,0,3.2-.3V453.9q-.9-.2-2.7-.4a30.19,30.19,0,0,0-3.293-.2,29.535,29.535,0,0,0-3.942.249,10.3,10.3,0,0,0-3.243.948,5.546,5.546,0,0,0-2.2,1.9,5.274,5.274,0,0,0-.8,2.995q0,3.494,2.346,4.841a12.929,12.929,0,0,0,6.437,1.346" transform="translate(-332.362 1945)"/>
    <path id="Trazado_64" d="M862.825,425.262a82.71,82.71,0,0,1,9.779-2.045,80.322,80.322,0,0,1,12.574-.949,30.672,30.672,0,0,1,11.128,1.746,16.731,16.731,0,0,1,7.035,4.941,19.278,19.278,0,0,1,3.693,7.583,40.46,40.46,0,0,1,1.1,9.78v29.644H893.26V448.115q0-7.182-1.9-10.179t-7.086-2.994q-1.6,0-3.393.149t-3.193.35v40.517H862.824v-50.7Z" transform="translate(-332.362 1945)"/>
    <path id="Trazado_65" d="M915.288,410.392l14.87-2.4v15.468h17.863v12.375H930.157V454.3a14.689,14.689,0,0,0,1.646,7.485q1.648,2.793,6.637,2.794a28.5,28.5,0,0,0,4.94-.447,25.527,25.527,0,0,0,4.641-1.247l2.1,11.576a42.264,42.264,0,0,1-5.987,1.9,34.981,34.981,0,0,1-8.085.8,26.6,26.6,0,0,1-10.079-1.646,15.822,15.822,0,0,1-6.388-4.59,17.09,17.09,0,0,1-3.343-7.137,42,42,0,0,1-.948-9.279v-44.11Z" transform="translate(-332.362 1945)"/>
    <path id="Trazado_66" d="M527.567,476.858q15.666,0,23.6-5.488T559.105,455a19.534,19.534,0,0,0-2.4-9.683q-2.392-4.289-8.981-6.785,7.983-4.791,7.983-13.073a17.657,17.657,0,0,0-2.245-9.232,16.992,16.992,0,0,0-6.238-6.038,28.766,28.766,0,0,0-9.528-3.244A72.011,72.011,0,0,0,525.572,406q-4.89,0-10.577.447a99.521,99.521,0,0,0-10.478,1.347v67.064a80.141,80.141,0,0,0,11.723,1.652q5.636.348,11.327.351m-7.885-57.988q1.8-.2,4.091-.249t4.291-.05q6.189,0,9.385,1.7t3.194,5.884a6.386,6.386,0,0,1-3.094,5.938q-3.094,1.842-10.278,1.846h-7.588V418.874Zm0,26.946h9.78q6.687,0,10.279,2.045t3.593,6.837q0,5.389-4.292,7.384a27,27,0,0,1-11.277,2q-2.4,0-4.4-.1t-3.691-.3Z" transform="translate(-332.362 1945)"/>
    <path id="Trazado_67" d="M461.161,413.248c1.964,13.971,3.145,33.086-1.449,44.79-.03.065-.063.128-.092.185a6.086,6.086,0,0,1-1.46,1.672c-7.909,6.87-28.792,10.65-48.51,11.76-1.137-12.908-.694-27.774,3.483-35.3,6.578-11.849,29.942-19.471,48.028-23.1m13-18.248s-59.54,5.492-75.105,33.537c-11.287,20.34-3.348,59.55-3.348,59.55s.619.013,1.747.013c9.351,0,53.722-.82,71.256-16.056a21.846,21.846,0,0,0,5.236-6.494c.257-.506.5-1.021.711-1.55,10.036-25.422-.5-69-.5-69" transform="translate(-332.362 1945)"/>
  </g>
</svg>
