<svg xmlns="http://www.w3.org/2000/svg" xmlns:xlink="http://www.w3.org/1999/xlink" width="182.022" height="32.483" viewBox="0 0 182.022 32.483">
  <defs>
    <clipPath id="clip-path">
      <path id="Trazado_6386" data-name="Trazado 6386" d="M367,9.927V24.339a13.76,13.76,0,0,0,.31,3.032A5.582,5.582,0,0,0,368.4,29.7a5.165,5.165,0,0,0,2.087,1.5,8.674,8.674,0,0,0,3.293.538,11.428,11.428,0,0,0,2.641-.26,13.8,13.8,0,0,0,1.956-.62l-.684-3.782a8.386,8.386,0,0,1-1.516.407,9.305,9.305,0,0,1-1.614.146,2.307,2.307,0,0,1-2.168-.913,4.793,4.793,0,0,1-.538-2.446V18.241h5.837V14.2h-5.837V9.144Z" transform="translate(-366.999 -9.144)" fill="#53a34d"/>
    </clipPath>
    <clipPath id="clip-path-2">
      <path id="Trazado_6388" data-name="Trazado 6388" d="M240.154,32.724a4.209,4.209,0,0,1-1.19-.489V23.464q.358-.066.913-.115t1.207-.048a3.508,3.508,0,0,1,3,1.353,5.88,5.88,0,0,1,1.011,3.6q0,4.664-3.457,4.663a5.719,5.719,0,0,1-1.483-.2m-.881-13.482q-.962.082-1.891.211t-1.777.31q-.848.181-1.5.376v22.6h4.858V36.278a9.051,9.051,0,0,0,1.7.554,8.7,8.7,0,0,0,1.891.2,7.581,7.581,0,0,0,3.228-.652,6.494,6.494,0,0,0,2.348-1.826,8.146,8.146,0,0,0,1.434-2.8,12.555,12.555,0,0,0,.489-3.619,10.853,10.853,0,0,0-.6-3.717A7.481,7.481,0,0,0,244.9,19.8a10.53,10.53,0,0,0-3.782-.636q-.881,0-1.843.082" transform="translate(-234.105 -19.16)" fill="#53a34d"/>
    </clipPath>
    <clipPath id="clip-path-3">
      <path id="Trazado_6389" data-name="Trazado 6389" d="M272.969,3.253V22.132a10.035,10.035,0,0,0,.277,2.462,3.944,3.944,0,0,0,1.044,1.859,5.083,5.083,0,0,0,2.087,1.19,12.169,12.169,0,0,0,3.44.457l.684-4.01a4.376,4.376,0,0,1-1.4-.294,1.978,1.978,0,0,1-.8-.587,2.021,2.021,0,0,1-.375-.88,6.334,6.334,0,0,1-.1-1.174V2.47Z" transform="translate(-272.969 -2.47)" fill="#53a34d"/>
    </clipPath>
    <clipPath id="clip-path-4">
      <path id="Trazado_6390" data-name="Trazado 6390" d="M298.406,32.8a1.666,1.666,0,0,1-.767-1.581,1.719,1.719,0,0,1,.261-.978,1.809,1.809,0,0,1,.717-.62,3.379,3.379,0,0,1,1.06-.31,9.594,9.594,0,0,1,2.364-.016q.587.066.881.131v3.684a9.408,9.408,0,0,1-1.044.1q-.652.032-1.369.032a4.231,4.231,0,0,1-2.1-.44m.032-13.694q-.831.082-1.581.195c-.5.077-.961.163-1.386.262s-.777.19-1.06.277l.619,3.913a10.5,10.5,0,0,1,2.087-.505,16.677,16.677,0,0,1,2.445-.179,3.635,3.635,0,0,1,2.609.75,2.694,2.694,0,0,1,.75,1.989v.457a7.622,7.622,0,0,0-1.191-.212,15.584,15.584,0,0,0-1.679-.081,12.968,12.968,0,0,0-2.707.278,7.293,7.293,0,0,0-2.315.9,4.647,4.647,0,0,0-1.614,1.663,5,5,0,0,0-.6,2.543,6.033,6.033,0,0,0,.521,2.641,4.4,4.4,0,0,0,1.5,1.745,6.543,6.543,0,0,0,2.331.962,14.293,14.293,0,0,0,3.016.293,27.918,27.918,0,0,0,4.5-.309q1.858-.31,2.9-.538V26.029a10.944,10.944,0,0,0-.359-2.9A5.157,5.157,0,0,0,306,20.91a5.592,5.592,0,0,0-2.3-1.4,11.262,11.262,0,0,0-3.587-.489q-.848,0-1.68.082" transform="translate(-292.814 -19.019)" fill="#53a34d"/>
    </clipPath>
    <clipPath id="clip-path-5">
      <path id="Trazado_6391" data-name="Trazado 6391" d="M333.33,19.47a27.114,27.114,0,0,0-3.2.668V36.7h4.858V23.464q.457-.065,1.044-.114t1.109-.049a2.528,2.528,0,0,1,2.315.978,6.56,6.56,0,0,1,.619,3.325v9.1h4.858V27.018a13.193,13.193,0,0,0-.358-3.2,6.3,6.3,0,0,0-1.207-2.478,5.47,5.47,0,0,0-2.3-1.614,10.017,10.017,0,0,0-3.635-.571,26.263,26.263,0,0,0-4.108.31" transform="translate(-330.134 -19.16)" fill="#53a34d"/>
    </clipPath>
  </defs>
  <g id="Grupo_3553" data-name="Grupo 3553" transform="translate(-669 -995.65)">
    <g id="Grupo_3547" data-name="Grupo 3547" transform="translate(839.642 999.902)" clip-path="url(#clip-path)">
      <rect id="Rectángulo_3565" data-name="Rectángulo 3565" width="15.13" height="24.229" transform="translate(-3.864 0.681) rotate(-10)" fill="#53a34d"/>
    </g>
    <path id="Trazado_6382" data-name="Trazado 6382" d="M126.131,32.8a1.667,1.667,0,0,1-.766-1.581,1.722,1.722,0,0,1,.26-.978,1.822,1.822,0,0,1,.717-.62,3.385,3.385,0,0,1,1.061-.31,9.766,9.766,0,0,1,1.288-.081,9.877,9.877,0,0,1,1.076.065q.586.066.88.131v3.684a9.365,9.365,0,0,1-1.043.1q-.652.032-1.37.032a4.233,4.233,0,0,1-2.1-.44m.033-13.694q-.832.082-1.581.195c-.5.077-.962.163-1.386.262s-.777.19-1.06.277l.62,3.913a10.506,10.506,0,0,1,2.087-.505,16.673,16.673,0,0,1,2.445-.179,3.633,3.633,0,0,1,2.609.75,2.692,2.692,0,0,1,.75,1.989v.457a7.58,7.58,0,0,0-1.189-.212,15.6,15.6,0,0,0-1.68-.081,12.955,12.955,0,0,0-2.706.278,7.3,7.3,0,0,0-2.316.9,4.638,4.638,0,0,0-1.613,1.663,5,5,0,0,0-.6,2.543,6.02,6.02,0,0,0,.521,2.641,4.393,4.393,0,0,0,1.5,1.745,6.542,6.542,0,0,0,2.331.962,14.289,14.289,0,0,0,3.016.293,27.9,27.9,0,0,0,4.5-.309q1.858-.31,2.9-.538V26.029a10.946,10.946,0,0,0-.358-2.9,5.164,5.164,0,0,0-1.223-2.217,5.578,5.578,0,0,0-2.3-1.4,11.252,11.252,0,0,0-3.587-.489q-.847,0-1.679.082" transform="translate(604.508 985.475)" fill="#008061"/>
    <path id="Trazado_6385" data-name="Trazado 6385" d="M163.63,24.006c-.371-.033-.674-.07-.914-.114V15.056a4.246,4.246,0,0,1,1.191-.489,5.72,5.72,0,0,1,1.483-.2q3.456,0,3.456,4.7a5.956,5.956,0,0,1-1.01,3.619,3.491,3.491,0,0,1-3,1.369q-.652,0-1.206-.049M157.858,3.253V27.218q.652.2,1.5.375t1.777.31q.93.13,1.891.212t1.843.081a10.531,10.531,0,0,0,3.782-.636,7.676,7.676,0,0,0,2.8-1.81,7.87,7.87,0,0,0,1.745-2.837,10.851,10.851,0,0,0,.6-3.717,12.864,12.864,0,0,0-.489-3.668,8.133,8.133,0,0,0-1.434-2.821,6.336,6.336,0,0,0-2.348-1.809,7.741,7.741,0,0,0-3.228-.636,8.692,8.692,0,0,0-1.891.2,9.072,9.072,0,0,0-1.7.554V2.47Z" transform="translate(584.541 994.329)" fill="#008061"/>
    <path id="Trazado_6387" data-name="Trazado 6387" d="M204.527,20q-.329,1.271-.737,2.755t-.851,3q-.441,1.516-.9,2.951t-.884,2.608q-.459-1.174-.967-2.608t-1-2.951q-.492-1.517-.934-3T197.486,20h-5.151a91.133,91.133,0,0,0,3.131,9.113q1.664,4.06,3.328,7.32a5.633,5.633,0,0,1-1.191,1.94,2.715,2.715,0,0,1-2.005.7,7.551,7.551,0,0,1-1.24-.1,8.379,8.379,0,0,1-1.338-.358l-.848,3.88a9.459,9.459,0,0,0,1.584.472,9.8,9.8,0,0,0,2.106.212,8.353,8.353,0,0,0,2.4-.31,5.29,5.29,0,0,0,1.845-.978,7.7,7.7,0,0,0,1.5-1.7,19.1,19.1,0,0,0,1.372-2.494q1.9-4.076,3.5-8.413T209.55,20Z" transform="translate(566.182 984.949)" fill="#008061"/>
    <g id="Grupo_3548" data-name="Grupo 3548" transform="translate(777.851 1004.559)" clip-path="url(#clip-path-2)">
      <rect id="Rectángulo_3566" data-name="Rectángulo 3566" width="19.796" height="25.985" transform="translate(-4.031 0.711) rotate(-10)" fill="#53a34d"/>
    </g>
    <g id="Grupo_3549" data-name="Grupo 3549" transform="translate(795.921 996.799)" clip-path="url(#clip-path-3)">
      <rect id="Rectángulo_3567" data-name="Rectángulo 3567" width="11.867" height="26.547" transform="translate(-4.383 0.773) rotate(-10)" fill="#53a34d"/>
    </g>
    <g id="Grupo_3550" data-name="Grupo 3550" transform="translate(805.149 1004.494)" clip-path="url(#clip-path-4)">
      <rect id="Rectángulo_3568" data-name="Rectángulo 3568" width="17.666" height="20.258" transform="translate(-3.072 0.542) rotate(-10)" fill="#53a34d"/>
    </g>
    <g id="Grupo_3551" data-name="Grupo 3551" transform="translate(822.501 1004.559)" clip-path="url(#clip-path-5)">
      <rect id="Rectángulo_3569" data-name="Rectángulo 3569" width="17.625" height="19.846" transform="translate(-3 0.529) rotate(-10)" fill="#53a34d"/>
    </g>
    <path id="Trazado_6383" data-name="Trazado 6383" d="M84.52,26.674q-.652-.032-1.206-.1V20.74h3.2a6.884,6.884,0,0,1,3.358.668,2.365,2.365,0,0,1,1.174,2.234,2.419,2.419,0,0,1-1.4,2.413,8.8,8.8,0,0,1-3.684.652q-.783,0-1.435-.033M83.314,11.936q.587-.064,1.337-.081t1.4-.016a6.713,6.713,0,0,1,3.065.554,1.994,1.994,0,0,1,1.044,1.924,2.088,2.088,0,0,1-1.011,1.94,6.9,6.9,0,0,1-3.358.6H83.314ZM81.782,7.876a32.457,32.457,0,0,0-3.424.44V30.228a26.219,26.219,0,0,0,3.831.538q1.841.114,3.7.114,5.119,0,7.711-1.793a6.074,6.074,0,0,0,2.592-5.347,6.377,6.377,0,0,0-.783-3.163,5.343,5.343,0,0,0-2.934-2.217,4.785,4.785,0,0,0,2.608-4.271,5.77,5.77,0,0,0-.733-3.016A5.563,5.563,0,0,0,92.313,9.1,9.394,9.394,0,0,0,89.2,8.04a23.5,23.5,0,0,0-3.962-.31q-1.6,0-3.456.146" transform="translate(627.076 991.515)" fill="#008061"/>
    <path id="Trazado_6384" data-name="Trazado 6384" d="M22.269,5.962c.642,4.565,1.028,10.81-.473,14.634-.01.021-.02.042-.03.06a1.977,1.977,0,0,1-.477.546c-2.584,2.245-9.407,3.48-15.849,3.842-.372-4.217-.227-9.074,1.138-11.535,2.149-3.871,9.783-6.362,15.692-7.548M26.518,0S7.066,1.794,1.98,10.957C-1.708,17.6.886,30.413.886,30.413s.2,0,.571,0c3.055,0,17.552-.268,23.281-5.246a7.132,7.132,0,0,0,1.711-2.122c.084-.166.164-.333.232-.506C29.96,14.238,26.518,0,26.518,0" transform="translate(669 995.65)" fill="#008061"/>
  </g>
</svg>
