<?xml version="1.0" encoding="utf-8"?>
<!-- Generator: Adobe Illustrator 15.1.0, SVG Export Plug-In . SVG Version: 6.00 Build 0)  -->
<!DOCTYPE svg PUBLIC "-//W3C//DTD SVG 1.1//EN" "http://www.w3.org/Graphics/SVG/1.1/DTD/svg11.dtd">
<svg version="1.1" id="Capa_1" xmlns="http://www.w3.org/2000/svg" xmlns:xlink="http://www.w3.org/1999/xlink" x="0px" y="0px"
	 width="557.12px" height="152.106px" viewBox="0 0 557.12 152.106" enable-background="new 0 0 557.12 152.106"
	 xml:space="preserve">
<g id="Grupo_6" transform="translate(-393 -395)">
	<path id="Trazado_53" d="M836.902,530.834c0.981,0.02,1.961-0.081,2.918-0.299c0.66-0.148,1.286-0.421,1.846-0.803
		c0.434-0.298,0.771-0.717,0.969-1.205c0.184-0.496,0.274-1.022,0.268-1.552c-0.013-1.235-0.66-2.379-1.714-3.024
		c-1.841-1.12-3.821-1.992-5.889-2.597c-1.214-0.428-2.428-0.919-3.642-1.473c-1.183-0.533-2.283-1.235-3.264-2.085
		c-0.977-0.855-1.776-1.893-2.355-3.055c-0.644-1.361-0.956-2.856-0.91-4.361c-0.024-1.596,0.307-3.178,0.968-4.632
		c0.631-1.36,1.565-2.56,2.729-3.505c1.27-1.013,2.724-1.768,4.282-2.223c1.842-0.54,3.755-0.802,5.674-0.775
		c3.813-0.079,7.586,0.805,10.967,2.57l-2.407,6.584c-1.11-0.564-2.265-1.038-3.452-1.416c-1.485-0.439-3.03-0.647-4.579-0.614
		c-1.997,0-3.434,0.277-4.309,0.83c-0.87,0.544-1.372,1.519-1.312,2.542c-0.02,0.607,0.148,1.206,0.482,1.713
		c0.366,0.507,0.829,0.935,1.363,1.258c0.645,0.402,1.325,0.743,2.033,1.018c0.77,0.303,1.617,0.615,2.545,0.937
		c1.927,0.714,3.604,1.419,5.03,2.114c1.31,0.615,2.513,1.438,3.561,2.436c0.938,0.918,1.66,2.034,2.115,3.266
		c0.496,1.463,0.731,3.004,0.693,4.55c0,3.462-1.213,6.147-3.641,8.057c-2.427,1.908-6.085,2.863-10.973,2.864
		c-1.485,0.009-2.971-0.091-4.442-0.299c-1.183-0.167-2.354-0.408-3.507-0.723c-1.56-0.419-3.061-1.03-4.469-1.819l2.355-6.638
		c1.304,0.687,2.677,1.233,4.097,1.632c1.945,0.523,3.956,0.767,5.97,0.724"/>
	<path id="Trazado_54" d="M881.333,523.124c0.023,2.01-0.247,4.013-0.805,5.943c-0.478,1.673-1.277,3.236-2.354,4.604
		c-1.035,1.284-2.355,2.311-3.854,2.997c-1.667,0.741-3.476,1.107-5.299,1.072c-1.043,0.006-2.085-0.103-3.105-0.322
		c-0.956-0.211-1.888-0.517-2.784-0.91v10.599h-7.976v-37.096c0.713-0.216,1.533-0.42,2.462-0.615
		c0.929-0.194,1.901-0.364,2.918-0.51c1.018-0.142,2.053-0.258,3.104-0.347c1.053-0.089,2.061-0.134,3.023-0.136
		c2.117-0.035,4.222,0.318,6.211,1.043c1.729,0.638,3.299,1.642,4.603,2.944c1.28,1.316,2.258,2.897,2.864,4.631
		c0.684,1.961,1.019,4.025,0.99,6.101 M873.194,523.338c0.105-2.1-0.477-4.177-1.659-5.914c-1.171-1.514-3.017-2.346-4.925-2.223
		c-0.714,0-1.374,0.027-1.98,0.08c-0.606,0.054-1.107,0.116-1.5,0.188v14.399c0.607,0.366,1.266,0.637,1.955,0.803
		c0.794,0.214,1.613,0.322,2.435,0.322C871.302,530.993,873.194,528.442,873.194,523.338"/>
	<path id="Trazado_55" d="M895.354,508.297c1.994-0.053,3.982,0.219,5.89,0.802c1.428,0.448,2.723,1.239,3.773,2.304
		c0.961,1.027,1.65,2.278,2.007,3.639c0.409,1.556,0.607,3.159,0.589,4.767v16.596c-1.142,0.248-2.73,0.543-4.767,0.884
		c-2.444,0.367-4.915,0.538-7.388,0.508c-1.663,0.017-3.323-0.146-4.952-0.482c-1.366-0.273-2.666-0.81-3.828-1.578
		c-1.06-0.721-1.909-1.709-2.462-2.865c-0.608-1.362-0.901-2.845-0.856-4.335c-0.045-1.454,0.297-2.894,0.99-4.172
		c0.639-1.12,1.55-2.06,2.65-2.731c1.173-0.703,2.458-1.201,3.799-1.471c1.461-0.308,2.95-0.46,4.442-0.456
		c0.921-0.005,1.84,0.04,2.756,0.134c0.66,0.064,1.313,0.181,1.954,0.348v-0.755c0.055-1.211-0.391-2.392-1.231-3.264
		c-0.821-0.821-2.248-1.232-4.282-1.233c-1.344,0.002-2.687,0.101-4.016,0.299c-1.167,0.159-2.315,0.437-3.426,0.829l-1.017-6.424
		c0.462-0.143,1.042-0.294,1.739-0.454s1.455-0.304,2.274-0.429c0.82-0.125,1.687-0.232,2.597-0.321
		c0.91-0.09,1.829-0.134,2.756-0.134 M895.99,531.639c0.784,0,1.533-0.018,2.249-0.055c0.573-0.021,1.146-0.074,1.713-0.16v-6.049
		c-0.32-0.075-0.804-0.143-1.444-0.214c-0.587-0.068-1.177-0.104-1.768-0.108c-0.707-0.002-1.414,0.043-2.115,0.135
		c-0.603,0.074-1.19,0.245-1.738,0.509c-0.476,0.229-0.881,0.579-1.177,1.017c-0.301,0.48-0.45,1.04-0.428,1.606
		c-0.109,1.033,0.379,2.04,1.257,2.595C893.608,531.449,894.798,531.698,895.99,531.639"/>
	<path id="Trazado_56" d="M921.317,500.909c0.068,1.305-0.451,2.571-1.414,3.454c-1.916,1.675-4.776,1.675-6.692,0
		c-1.892-1.914-1.892-4.993,0-6.907c1.916-1.677,4.777-1.677,6.692,0C920.865,498.339,921.385,499.605,921.317,500.909
		 M920.568,537.202h-7.976v-28.155h7.976V537.202z"/>
	<path id="Trazado_57" d="M925.817,510.01c1.725-0.47,3.477-0.837,5.245-1.098c2.231-0.346,4.486-0.515,6.744-0.508
		c2.031-0.059,4.055,0.258,5.97,0.937c1.467,0.539,2.768,1.453,3.772,2.65c0.953,1.192,1.63,2.582,1.982,4.068
		c0.408,1.718,0.606,3.479,0.588,5.246v15.898h-7.978v-14.937c0-2.57-0.338-4.391-1.015-5.46c-0.678-1.07-1.944-1.605-3.8-1.605
		c-0.571,0-1.176,0.027-1.819,0.08s-1.214,0.116-1.713,0.188v21.734h-7.978V510.01z"/>
	<path id="Trazado_58" d="M586.896,422.068c3.716-0.097,7.423,0.409,10.978,1.497c2.661,0.835,5.076,2.309,7.036,4.293
		c1.792,1.916,3.078,4.248,3.742,6.785c0.762,2.898,1.13,5.886,1.098,8.882v30.937c-2.131,0.467-5.091,1.016-8.882,1.648
		c-4.557,0.687-9.163,1.003-13.771,0.947c-3.101,0.03-6.195-0.27-9.232-0.894c-2.546-0.51-4.97-1.509-7.135-2.944
		c-1.977-1.34-3.562-3.184-4.591-5.339c-1.135-2.539-1.682-5.303-1.597-8.083c-0.085-2.713,0.552-5.4,1.847-7.785
		c1.19-2.088,2.889-3.838,4.94-5.089c2.188-1.313,4.584-2.241,7.086-2.745c2.723-0.572,5.5-0.857,8.282-0.849
		c1.716-0.01,3.432,0.073,5.139,0.249c1.23,0.119,2.448,0.336,3.643,0.649v-1.399c0.103-2.258-0.728-4.459-2.295-6.086
		c-1.532-1.53-4.192-2.296-7.983-2.296c-2.505-0.001-5.007,0.182-7.485,0.549c-2.176,0.296-4.316,0.814-6.386,1.547l-1.899-11.977
		c0.864-0.266,1.946-0.548,3.244-0.848c1.298-0.3,2.713-0.566,4.246-0.8c1.529-0.232,3.144-0.431,4.841-0.596
		c1.698-0.165,3.411-0.249,5.139-0.25 M588.096,465.582c1.463,0,2.86-0.034,4.191-0.1c1.069-0.04,2.135-0.14,3.193-0.298v-11.279
		c-0.599-0.133-1.498-0.267-2.694-0.4c-1.093-0.126-2.192-0.193-3.293-0.199c-1.318-0.005-2.635,0.078-3.942,0.249
		c-1.126,0.136-2.222,0.456-3.245,0.948c-0.886,0.427-1.643,1.082-2.194,1.896c-0.56,0.896-0.839,1.939-0.799,2.995
		c0,2.329,0.782,3.941,2.345,4.841C583.224,465.134,585.37,465.582,588.096,465.582"/>
	<path id="Trazado_59" d="M666.456,449.713c0.052,3.871-0.574,7.721-1.848,11.376c-1.139,3.242-2.96,6.203-5.34,8.682
		c-2.42,2.454-5.35,4.345-8.583,5.54c-3.707,1.352-7.63,2.01-11.576,1.945c-1.797,0-3.677-0.083-5.64-0.249
		c-1.962-0.166-3.892-0.381-5.788-0.647c-1.896-0.268-3.708-0.583-5.438-0.948c-1.729-0.365-3.259-0.748-4.591-1.149v-73.352
		l14.872-2.396v26.148c1.67-0.735,3.408-1.304,5.189-1.697c1.902-0.409,3.843-0.609,5.788-0.596
		c3.395-0.067,6.764,0.597,9.879,1.946c2.8,1.251,5.263,3.149,7.187,5.538c2.015,2.563,3.506,5.496,4.391,8.634
		c1.037,3.651,1.542,7.432,1.497,11.228 M651.286,449.316c0-9.581-3.525-14.371-10.576-14.371c-1.534-0.001-3.062,0.199-4.543,0.596
		c-1.284,0.31-2.512,0.814-3.643,1.497v27.044c0.731,0.134,1.663,0.251,2.795,0.35c1.132,0.098,2.363,0.148,3.691,0.149
		c4.059,0,7.119-1.397,9.182-4.191c2.062-2.794,3.093-6.486,3.093-11.077"/>
	<path id="Trazado_60" d="M719.676,423.464c-3.002,10.112-6.136,19.593-9.404,28.442c-3.268,8.85-6.836,17.433-10.706,25.749
		c-1.208,2.646-2.61,5.197-4.198,7.634c-1.269,1.948-2.818,3.696-4.599,5.189c-1.664,1.364-3.582,2.383-5.643,2.998
		c-2.39,0.67-4.864,0.99-7.345,0.948c-2.167,0.017-4.328-0.2-6.447-0.648c-1.655-0.339-3.277-0.822-4.847-1.446l2.594-11.876
		c1.333,0.479,2.703,0.846,4.097,1.097c1.255,0.204,2.526,0.304,3.798,0.298c2.661,0,4.707-0.715,6.138-2.146
		c1.607-1.71,2.849-3.731,3.649-5.938c-3.396-6.654-6.79-14.122-10.185-22.405c-3.688-9.123-6.891-18.435-9.595-27.896h15.767
		c0.669,2.595,1.455,5.405,2.356,8.432c0.902,3.027,1.854,6.087,2.858,9.182c1,3.094,2.018,6.104,3.054,9.031
		c1.035,2.927,2.021,5.589,2.959,7.989c0.866-2.396,1.768-5.057,2.705-7.983c0.937-2.928,1.855-5.938,2.756-9.031
		c0.9-3.094,1.77-6.155,2.607-9.182c0.837-3.027,1.588-5.84,2.254-8.438H719.676z"/>
	<path id="Trazado_61" d="M774.965,449.712c0.043,3.746-0.462,7.478-1.498,11.078c-0.891,3.119-2.382,6.035-4.391,8.583
		c-1.931,2.394-4.391,4.306-7.187,5.586c-3.107,1.381-6.479,2.062-9.879,1.996c-1.946,0.013-3.887-0.188-5.79-0.596
		c-1.781-0.394-3.519-0.962-5.188-1.697v19.759h-14.87v-69.159c1.331-0.4,2.86-0.783,4.591-1.149
		c1.73-0.366,3.542-0.682,5.437-0.948c1.897-0.265,3.826-0.48,5.789-0.647c1.961-0.167,3.841-0.25,5.639-0.25
		c3.945-0.065,7.869,0.595,11.576,1.947c3.224,1.188,6.152,3.062,8.583,5.49c2.386,2.455,4.208,5.4,5.34,8.631
		c1.273,3.656,1.898,7.507,1.846,11.378 M759.793,450.112c0-4.591-1.032-8.267-3.094-11.028c-2.063-2.76-5.123-4.141-9.181-4.141
		c-1.332,0-2.563,0.05-3.693,0.149c-1.129,0.099-2.061,0.216-2.795,0.35v26.844c1.13,0.683,2.358,1.188,3.643,1.497
		c1.481,0.398,3.01,0.6,4.543,0.6C756.268,464.383,759.793,459.626,759.793,450.112"/>
	<path id="Trazado_62" d="M802.427,476.957c-3.559,0.04-7.104-0.43-10.528-1.397c-2.39-0.687-4.579-1.936-6.387-3.643
		c-1.567-1.567-2.673-3.536-3.194-5.689c-0.593-2.466-0.878-4.997-0.848-7.534v-57.784l14.87-2.396V455.7
		c-0.012,1.205,0.088,2.408,0.298,3.593c0.161,0.977,0.555,1.9,1.147,2.694c0.649,0.796,1.491,1.414,2.445,1.796
		c1.37,0.535,2.82,0.839,4.29,0.9L802.427,476.957z"/>
	<path id="Trazado_63" d="M832.067,422.068c3.716-0.097,7.423,0.409,10.978,1.497c2.66,0.836,5.076,2.31,7.036,4.293
		c1.791,1.916,3.076,4.248,3.741,6.785c0.761,2.898,1.131,5.886,1.097,8.882v30.937c-2.129,0.467-5.089,1.016-8.88,1.648
		c-4.557,0.687-9.162,1.003-13.77,0.947c-3.1,0.03-6.195-0.27-9.231-0.894c-2.547-0.509-4.97-1.509-7.134-2.944
		c-1.978-1.34-3.563-3.184-4.593-5.339c-1.135-2.54-1.68-5.303-1.596-8.083c-0.086-2.713,0.552-5.4,1.846-7.785
		c1.19-2.087,2.89-3.838,4.939-5.089c2.188-1.313,4.585-2.241,7.086-2.745c2.725-0.572,5.501-0.857,8.284-0.849
		c1.717-0.01,3.432,0.073,5.14,0.249c1.229,0.119,2.447,0.336,3.643,0.649v-1.399c0.103-2.258-0.728-4.459-2.296-6.086
		c-1.531-1.53-4.192-2.296-7.983-2.296c-2.505-0.001-5.007,0.182-7.485,0.549c-2.176,0.296-4.315,0.814-6.387,1.547l-1.896-11.976
		c0.864-0.266,1.945-0.548,3.244-0.848c1.298-0.3,2.712-0.566,4.24-0.8c1.53-0.232,3.144-0.431,4.842-0.596
		c1.697-0.166,3.41-0.249,5.139-0.25 M833.268,465.582c1.462,0,2.859-0.033,4.19-0.1c1.07-0.04,2.137-0.14,3.195-0.298v-11.28
		c-0.6-0.133-1.497-0.267-2.695-0.4c-1.093-0.126-2.192-0.193-3.293-0.199c-1.317-0.005-2.635,0.078-3.942,0.249
		c-1.126,0.135-2.221,0.456-3.243,0.948c-0.887,0.426-1.646,1.082-2.195,1.896c-0.561,0.896-0.838,1.939-0.799,2.995
		c0,2.329,0.781,3.941,2.346,4.841c1.563,0.899,3.709,1.348,6.437,1.346"/>
	<path id="Trazado_64" d="M862.825,425.262c3.215-0.878,6.481-1.561,9.779-2.045c4.16-0.646,8.364-0.962,12.574-0.949
		c3.785-0.11,7.558,0.482,11.128,1.746c2.735,1.006,5.16,2.709,7.035,4.941c1.776,2.225,3.037,4.814,3.693,7.583
		c0.763,3.203,1.131,6.488,1.098,9.78v29.644H893.26v-27.847c0-4.788-0.631-8.181-1.896-10.179
		c-1.264-1.997-3.625-2.995-7.086-2.994c-1.064,0-2.195,0.049-3.393,0.149c-1.196,0.099-2.262,0.216-3.193,0.35v40.517h-14.868
		V425.262z"/>
	<path id="Trazado_65" d="M915.288,410.392l14.87-2.396v15.468h17.863v12.375h-17.864v18.46c0,3.128,0.549,5.624,1.646,7.485
		c1.099,1.862,3.311,2.793,6.637,2.794c1.657-0.005,3.311-0.155,4.94-0.447c1.583-0.269,3.136-0.686,4.641-1.247l2.097,11.576
		c-1.946,0.78-3.947,1.414-5.987,1.897c-2.655,0.579-5.368,0.846-8.085,0.797c-3.435,0.108-6.857-0.452-10.079-1.646
		c-2.481-0.968-4.679-2.546-6.388-4.59c-1.655-2.086-2.8-4.53-3.343-7.137c-0.659-3.048-0.978-6.16-0.948-9.279V410.392z"/>
	<path id="Trazado_66" d="M527.567,476.858c10.444,0,18.312-1.829,23.603-5.488c5.291-3.66,7.935-9.115,7.935-16.368
		c0.052-3.381-0.773-6.717-2.397-9.683c-1.595-2.859-4.589-5.121-8.981-6.785c5.322-3.194,7.983-7.551,7.983-13.073
		c0.109-3.225-0.667-6.417-2.245-9.232c-1.521-2.519-3.671-4.599-6.238-6.038c-2.961-1.633-6.186-2.731-9.528-3.244
		c-4.008-0.657-8.065-0.973-12.127-0.946c-3.26,0-6.786,0.149-10.577,0.447c-3.514,0.263-7.012,0.713-10.478,1.347v67.064
		c3.861,0.839,7.78,1.391,11.723,1.652c3.757,0.232,7.532,0.349,11.327,0.351 M519.682,418.874c1.197-0.132,2.561-0.215,4.091-0.249
		c1.531-0.033,2.961-0.05,4.291-0.05c4.126,0,7.255,0.566,9.385,1.697c2.13,1.131,3.195,3.093,3.194,5.884
		c0,2.73-1.031,4.71-3.094,5.938c-2.063,1.228-5.489,1.843-10.278,1.846h-7.588V418.874z M519.682,445.82h9.78
		c4.458,0,7.884,0.682,10.279,2.045c2.395,1.364,3.592,3.643,3.593,6.837c0,3.593-1.431,6.055-4.292,7.384
		c-2.861,1.33-6.62,1.996-11.277,1.997c-1.597,0-3.062-0.033-4.395-0.1c-1.333-0.067-2.563-0.166-3.691-0.298L519.682,445.82z"/>
	<path id="Trazado_67" d="M461.161,413.248c1.964,13.971,3.145,33.086-1.449,44.79c-0.03,0.065-0.063,0.128-0.092,0.185
		c-0.38,0.642-0.875,1.209-1.46,1.672c-7.909,6.87-28.792,10.65-48.51,11.76c-1.137-12.908-0.694-27.774,3.483-35.304
		C419.711,424.502,443.075,416.88,461.161,413.248 M474.166,395c0,0-59.54,5.492-75.105,33.537
		c-11.287,20.34-3.348,59.55-3.348,59.55s0.619,0.013,1.747,0.013c9.351,0,53.722-0.82,71.256-16.056
		c2.146-1.808,3.924-4.013,5.236-6.494c0.257-0.506,0.502-1.021,0.711-1.55C484.699,438.578,474.166,395,474.166,395"/>
</g>
</svg>
